<svg id="visual" viewBox="0 0 960 540" width="960" height="540" xmlns="http://www.w3.org/2000/svg" xmlns:xlink="http://www.w3.org/1999/xlink" version="1.1"><rect x="0" y="0" width="960" height="540" fill="#002233"></rect><path d="M0 444L11.5 440.8C23 437.7 46 431.3 68.8 419.8C91.7 408.3 114.3 391.7 137.2 387.3C160 383 183 391 205.8 394.7C228.7 398.3 251.3 397.7 274.2 404C297 410.3 320 423.7 342.8 420.2C365.7 416.7 388.3 396.3 411.2 396.8C434 397.3 457 418.7 480 421.8C503 425 526 410 548.8 405.2C571.7 400.3 594.3 405.7 617.2 401C640 396.3 663 381.7 685.8 375.2C708.7 368.7 731.3 370.3 754.2 375.2C777 380 800 388 822.8 386.7C845.7 385.3 868.3 374.7 891.2 379.8C914 385 937 406 948.5 416.5L960 427L960 541L948.5 541C937 541 914 541 891.2 541C868.3 541 845.7 541 822.8 541C800 541 777 541 754.2 541C731.3 541 708.7 541 685.8 541C663 541 640 541 617.2 541C594.3 541 571.7 541 548.8 541C526 541 503 541 480 541C457 541 434 541 411.2 541C388.3 541 365.7 541 342.8 541C320 541 297 541 274.2 541C251.3 541 228.7 541 205.8 541C183 541 160 541 137.2 541C114.3 541 91.7 541 68.8 541C46 541 23 541 11.5 541L0 541Z" fill="#0066FF" stroke-linecap="round" stroke-linejoin="miter"></path></svg>